<svg width="104" height="40" viewBox="0 0 104 40" xmlns="http://www.w3.org/2000/svg"><path d="M29.414 20.031c0-2.494 1.948-4.612 4.527-4.612 1.674 0 2.716.7 3.536 1.572l-.837.888c-.7-.735-1.52-1.298-2.716-1.298-1.794 0-3.16 1.52-3.16 3.45 0 1.913 1.4 3.434 3.245 3.434 1.128 0 1.965-.58 2.665-1.333l.871.803c-.888.991-1.947 1.709-3.604 1.709-2.58 0-4.527-2.102-4.527-4.613zm9.608-7.414l1.315-.648v5.175c.58-.956 1.503-1.725 3.024-1.725 2.134 0 3.382 1.435 3.382 3.536v5.484h-1.316v-5.16c0-1.64-.888-2.664-2.442-2.664-1.52 0-2.648 1.11-2.648 2.767v5.057h-1.315V12.617zm9.262 9.225c0-1.896 1.537-2.887 3.775-2.887 1.127 0 1.913.154 2.699.376v-.273c0-1.572-.957-2.392-2.614-2.392-1.042 0-1.862.257-2.682.632l-.392-1.076c.973-.444 1.913-.752 3.21-.752 1.248 0 2.221.342 2.854.974.615.615.922 1.47.922 2.597v5.398h-1.298v-1.316c-.615.786-1.623 1.504-3.178 1.504-1.656 0-3.296-.94-3.296-2.785zm6.49-.649v-.82a9.071 9.071 0 0 0-2.579-.376c-1.64 0-2.579.718-2.579 1.811 0 1.11 1.025 1.76 2.22 1.76 1.623 0 2.939-.974 2.939-2.375zm3.505-5.586h1.315v1.538c.581-.957 1.504-1.726 3.024-1.726 2.135 0 3.382 1.435 3.382 3.536v5.484h-1.315v-5.16c0-1.64-.889-2.664-2.443-2.664-1.52 0-2.648 1.11-2.648 2.768v5.056H58.28v-8.832zm9.78 10.369l.597-1.025c1.008.734 2.136 1.127 3.4 1.127 1.947 0 3.211-1.076 3.211-3.143v-1.042c-.769 1.025-1.845 1.862-3.467 1.862-2.119 0-4.151-1.588-4.151-4.168 0-2.579 2.05-4.168 4.15-4.168 1.657 0 2.734.82 3.451 1.777v-1.589h1.315v7.294c0 1.367-.41 2.409-1.127 3.126-.786.786-1.964 1.179-3.365 1.179-1.47 0-2.836-.41-4.015-1.23zM75.3 19.57c0-1.81-1.571-2.989-3.245-2.989-1.674 0-3.058 1.162-3.058 3.006 0 1.777 1.418 3.007 3.058 3.007 1.674 0 3.245-1.213 3.245-3.024zm7.513 3.93c1.213 0 2.067-.497 2.785-1.248l.82.735c-.889.99-1.965 1.656-3.64 1.656-2.425 0-4.406-1.861-4.406-4.612 0-2.562 1.793-4.612 4.236-4.612 2.614 0 4.117 2.084 4.117 4.68 0 .12 0 .257-.017.462h-7.004c.188 1.862 1.555 2.938 3.109 2.938zm2.58-3.998c-.154-1.606-1.077-2.973-2.82-2.973-1.52 0-2.68 1.265-2.869 2.973h5.688zm3.167-6.316l1.315-.648v11.9H88.56V13.187zm3.72-.57l1.316-.647v12.47h-1.315V12.617zm3.06 14.163l.444-1.042c.427.222.82.324 1.383.324.786 0 1.282-.41 1.811-1.657l-4.014-8.797h1.452l3.211 7.362 2.836-7.362h1.4l-3.706 9.122c-.752 1.828-1.606 2.494-2.938 2.494-.735 0-1.281-.154-1.88-.444zM20.556 20.97c-3.824 3.364-5.42 3.687-7.003 2.95l1.728-2.183c.255-.32.44-.699.535-1.096l.697-2.91-2.91.697c-.398.095-.777.28-1.094.534l-2.185 1.728c-.737-1.582-.414-3.178 2.95-7.002 3.177-3.613 9.902-4.443 11.895-4.612-.17 1.992-1 8.717-4.613 11.895zm-2.546 5.214a.63.63 0 0 1-.263.396c-.403.277-1.023.662-1.574.995l.027-.103c.268-1.051.265-1.862-.007-2.414.725-.22 1.508-.625 2.395-1.23-.215.814-.463 1.786-.578 2.356zm-6.05-1.887a1.137 1.137 0 0 1-.949.43l-.013-.001-.87.001 3.015-3.626-3.627 3.014.002-.855v-.027a1.138 1.138 0 0 1 .429-.95l3.193-2.527c.204-.163.445-.281.699-.342l1.303-.312-.312 1.303a1.81 1.81 0 0 1-.343.701l-2.526 3.191zm-5.188-6.253l-.103.027c.333-.55.717-1.171.994-1.574a.628.628 0 0 1 .397-.263c.57-.115 1.542-.363 2.356-.578-.606.887-1.01 1.67-1.23 2.395-.552-.272-1.362-.275-2.414-.007zM25.695 8.022L26.244 8l-.022.55c-.015.372-.42 9.158-4.996 13.182-.466.41-.905.78-1.323 1.115-.16.583-.716 2.632-.899 3.537a1.642 1.642 0 0 1-.682 1.033c-.897.616-2.741 1.692-2.82 1.738l-1.34.782.62-1.423c.405-.93.82-2.493.478-3.05-.056-.092-.149-.187-.41-.203v-.004c-.66-.011-1.292-.19-1.94-.523l-.153.193a2.149 2.149 0 0 1-1.784.813l-2.474.005.005-2.475a2.154 2.154 0 0 1 .813-1.782l.193-.153c-.333-.649-.513-1.28-.524-1.94h-.003c-.016-.262-.111-.355-.203-.412-.557-.342-2.12.074-3.05.479l-1.421.617.78-1.338c.046-.078 1.122-1.922 1.738-2.819a1.64 1.64 0 0 1 1.033-.683c.905-.182 2.954-.738 3.537-.898a37.42 37.42 0 0 1 1.115-1.323c4.024-4.576 12.81-4.98 13.183-4.996zM12.4 28.213c.2-.185.39-.381.562-.598-.242.5-.595.942-.978 1.351a8.103 8.103 0 0 1-1.29 1.089c-.466.32-.964.595-1.48.83-.259.119-.523.22-.789.322-.268.09-.537.183-.811.256-.272.084-.55.138-.826.204-.279.05-.556.113-.837.145l-.421.057-.422.04c-.282.03-.564.035-.846.05a18.945 18.945 0 0 1-3.364-.2L0 31.63l.579-.688c.554-.658 1.042-1.341 1.434-2.091.398-.747.72-1.554 1.03-2.372a17.75 17.75 0 0 1 1.115-2.444c.217-.39.449-.773.699-1.143.248-.37.51-.732.802-1.067a23.24 23.24 0 0 0-1.09 2.403c-.317.818-.588 1.64-.82 2.484-.242.857-.524 1.716-.913 2.55-.197.416-.421.822-.671 1.21a12.29 12.29 0 0 1-.268.39c.781.076 1.564.115 2.344.107.266-.008.534-.006.799-.027l.4-.02.397-.039.198-.019.198-.026.395-.051c.261-.047.525-.085.784-.144a11.738 11.738 0 0 0 3.005-1.05c.472-.248.932-.53 1.36-.858.219-.16.425-.337.623-.523zm7.375-11.071c.684 0 1.37-.26 1.89-.782a2.677 2.677 0 0 0 0-3.781 2.677 2.677 0 0 0-3.781 0 2.656 2.656 0 0 0-.783 1.89c0 .714.278 1.386.783 1.891a2.666 2.666 0 0 0 1.89.782zM18.6 13.296a1.655 1.655 0 0 1 1.174-.485c.424 0 .85.161 1.173.485.647.647.647 1.7 0 2.347a1.661 1.661 0 0 1-2.833-1.174c0-.443.173-.86.486-1.173z" fill="#FFF" fill-rule="evenodd"/></svg>